<?xml version="1.0" encoding="UTF-8" standalone="no"?>
<!-- Created with Inkscape (http://www.inkscape.org/) -->

<svg
   xmlns:dc="http://purl.org/dc/elements/1.1/"
   xmlns:cc="http://creativecommons.org/ns#"
   xmlns:rdf="http://www.w3.org/1999/02/22-rdf-syntax-ns#"
   xmlns:svg="http://www.w3.org/2000/svg"
   xmlns="http://www.w3.org/2000/svg"
   xmlns:sodipodi="http://sodipodi.sourceforge.net/DTD/sodipodi-0.dtd"
   xmlns:inkscape="http://www.inkscape.org/namespaces/inkscape"
   width="143.618"
   height="151.54813"
   id="svg3198"
   version="1.1"
   inkscape:version="0.48.4 r9939"
   sodipodi:docname="New document 9">
  <defs
     id="defs3200" />
  <sodipodi:namedview
     id="base"
     pagecolor="#ffffff"
     bordercolor="#666666"
     borderopacity="1.0"
     inkscape:pageopacity="0.0"
     inkscape:pageshadow="2"
     inkscape:zoom="0.35"
     inkscape:cx="71.808996"
     inkscape:cy="75.774061"
     inkscape:document-units="px"
     inkscape:current-layer="layer1"
     showgrid="false"
     fit-margin-top="0"
     fit-margin-left="0"
     fit-margin-right="0"
     fit-margin-bottom="0"
     inkscape:window-width="525"
     inkscape:window-height="406"
     inkscape:window-x="532"
     inkscape:window-y="507"
     inkscape:window-maximized="0" />
  <metadata
     id="metadata3203">
    <rdf:RDF>
      <cc:Work
         rdf:about="">
        <dc:format>image/svg+xml</dc:format>
        <dc:type
           rdf:resource="http://purl.org/dc/dcmitype/StillImage" />
        <dc:title></dc:title>
      </cc:Work>
    </rdf:RDF>
  </metadata>
  <g
     inkscape:label="Layer 1"
     inkscape:groupmode="layer"
     id="layer1"
     transform="translate(-303.191,-456.58812)">
    <g
       id="g3030"
       transform="matrix(0.24178113,0,0,0.24178113,456.86018,393.27051)">
      <path
         style="fill:#e2e2e2"
         d="m -341.16012,887.34876 c -0.28927,-0.75381 -24.17468,-10.51619 -53.0787,-21.69418 l -52.55275,-20.32361 0.66697,-7.05583 c 0.36683,-3.8807 0.90709,-8.63834 1.20058,-10.57252 0.5149,-3.3934 -0.0879,-4.19984 -17.19273,-23 -9.74948,-10.71582 -18.67636,-20.53062 -19.8375,-21.81067 -2.05585,-2.26638 -2.10254,-3.02631 -1.78189,-29 l 0.32929,-26.67263 -19.27861,-39.35368 -19.2786,-39.35367 3.38104,-28.98777 c 2.65609,-22.77233 3.14222,-29.5578 2.26721,-31.64632 -6.50002,-15.51459 -8.36822,-20.86181 -9.82475,-28.12073 -2.23429,-11.13495 -1.49039,-22.33166 2.14177,-32.23693 1.47244,-4.01549 5.79833,-16.5259 9.61308,-27.8009 l 6.93592,-20.5 -0.63342,-29 c -0.34838,-15.95 -1.02507,-29.40182 -1.50375,-29.89294 -0.50986,-0.5231 -11.76617,0.0477 -27.1774,1.37811 -14.46888,1.24908 -27.88206,2.2848 -29.80706,2.3016 -2.56563,0.0224 -7.10399,-2.02894 -17,-7.68396 -7.425,-4.24298 -14.03014,-8.25187 -14.6781,-8.90866 -1.6967,-1.71981 -31.3219,-68.43297 -31.3219,-70.53396 0,-0.9674 1.34205,-6.0117 2.98234,-11.20955 1.64028,-5.19785 2.99028,-9.96389 3,-10.5912 0.01,-0.62731 -2.68234,-5.25243 -5.98234,-10.27806 -3.3,-5.02562 -6,-9.63739 -6,-10.24837 0,-0.61099 4.8375,-7.59948 10.75,-15.53 5.9125,-7.93052 10.60375,-15.12909 10.42499,-15.99684 -0.22871,-1.11019 0.16595,-1.38932 1.33178,-0.94195 0.91125,0.34968 2.54656,0.63578 3.63404,0.63578 1.08747,0 1.74931,0.36877 1.47075,0.8195 -0.27856,0.45072 7.45738,1.8379 17.19098,3.08262 9.73361,1.24471 18.59747,2.85092 19.69747,3.56934 1.1,0.71842 19.63233,18.68124 41.18296,39.91738 21.55063,21.23614 39.89938,38.61116 40.775,38.61116 0.87562,0 22.20436,-9.225 47.39721,-20.5 l 45.80517,-20.5 57.33965,0 57.33965,0 45.80517,20.5 c 25.19285,11.275 46.52159,20.5 47.39721,20.5 0.87562,0 19.22437,-17.37502 40.775,-38.61116 21.55064,-21.23614 40.08297,-39.19896 41.18298,-39.91738 1.1,-0.71842 9.96385,-2.32463 19.69745,-3.56934 9.73361,-1.24472 17.46956,-2.6319 17.19098,-3.08262 -0.27856,-0.45073 0.38328,-0.8195 1.47077,-0.8195 1.08747,0 2.72279,-0.2861 3.63403,-0.63578 1.14663,-0.44 1.55672,-0.17166 1.33179,0.87145 -0.17876,0.82897 4.51247,8.04207 10.42498,16.0291 5.9125,7.98704 10.75,15.00727 10.75,15.60051 0,0.59323 -2.70001,5.19048 -6,10.2161 -3.3,5.02563 -5.99205,9.65075 -5.98235,10.27806 0.01,0.62731 1.35973,5.39335 3,10.5912 1.6403,5.19785 2.98235,10.24215 2.98235,11.20955 0,2.10099 -29.6252,68.81415 -31.32191,70.53396 -0.64795,0.65679 -7.2531,4.66568 -14.67809,8.90866 -9.896,5.65502 -14.43437,7.70635 -17,7.68396 -1.925,-0.0168 -15.33818,-1.05252 -29.80706,-2.3016 -15.41124,-1.33043 -26.66754,-1.90121 -27.1774,-1.37811 -0.47868,0.49112 -1.15537,13.94294 -1.50375,29.89294 l -0.63343,29 6.93593,20.5 c 3.81475,11.275 8.14064,23.78541 9.61308,27.8009 3.63216,9.90527 4.37606,21.10198 2.14177,32.23693 -1.45949,7.27365 -3.25584,12.41438 -9.84642,28.17813 -0.90303,2.15994 -0.47256,8.30174 2.10265,30 1.78098,15.00622 3.22385,28.21004 3.20638,29.34182 -0.0175,1.13178 -8.61929,19.58178 -19.11518,41 l -19.08344,38.94222 0.33043,26.67263 c 0.32178,25.97449 0.27517,26.73355 -1.78074,29 -1.16114,1.28005 -10.08802,11.09485 -19.83749,21.81067 -17.10481,18.80016 -17.70763,19.6066 -17.19273,23 0.29349,1.93418 0.83382,6.69256 1.20074,10.57416 l 0.66714,7.05746 -52.36024,20.32638 c -28.79813,11.17951 -52.7201,20.94115 -53.15993,21.69254 -1.03579,1.7695 -4.60945,1.76653 -5.28901,-0.004 z m -40.4113,-63.59917 c 0,-0.53335 0.70242,-5.69776 1.56092,-11.47648 l 1.56092,-10.50676 -7.66075,-13.27351 c -4.21342,-7.30044 -8.37685,-13.83602 -9.25205,-14.52352 -0.87522,-0.6875 -4.20574,-1.25 -7.40118,-1.25 l -5.80989,0 -5.82858,6.25 c -18.20426,19.52041 -18.1851,18.75 -0.46659,18.75 l 12.76557,0 6.16267,6.60202 c 5.02819,5.38668 6.47809,7.73379 7.87613,12.75 0.9424,3.38139 1.91538,6.48548 2.16216,6.89798 0.65894,1.10141 4.33067,0.91512 4.33067,-0.21973 z m 92.33707,-6.19589 c 1.58666,-5.56005 2.92157,-7.7577 8.04836,-13.25 l 6.1462,-6.58438 12.76557,0 c 17.71851,0 17.73769,0.77041 -0.46658,-18.75 l -5.82859,-6.25 -5.80989,0 c -3.19543,0 -6.52596,0.5625 -7.40117,1.25 -0.87521,0.6875 -5.03864,7.22308 -9.25205,14.52352 l -7.66075,13.27351 1.56092,10.50676 c 0.8585,5.77872 1.56092,10.97443 1.56092,11.54603 0,0.57161 0.99786,0.89548 2.21746,0.71973 1.79832,-0.25915 2.57699,-1.57946 4.11961,-6.98517 z m -80.33707,-26.03274 c 0,-5.79698 -0.42557,-6.76443 -13.58948,-30.89301 -15.89253,-29.12997 -11.51352,-26.44979 -35.93711,-21.99536 -8.78538,1.60229 -16.13797,2.75023 -16.33911,2.55096 -0.20113,-0.19926 0.71016,-12.2479 2.02509,-26.77476 l 2.3908,-26.41247 -1.78227,-23.8885 c -0.98024,-13.13868 -1.66652,-25.58159 -1.52509,-27.65093 l 0.25717,-3.76243 4.69114,3.76243 c 4.02144,3.2253 6.3658,6.90316 16.4217,25.76243 6.4518,12.1 12.56604,23.21237 13.58719,24.69416 1.32928,1.92891 9.98359,6.68658 30.46868,16.75 15.73663,7.73071 29.38571,14.05584 30.33129,14.05584 0.94558,0 14.59466,-6.32513 30.33129,-14.05584 20.4851,-10.06342 29.13941,-14.82109 30.46868,-16.75 1.02115,-1.48179 7.13539,-12.59416 13.5872,-24.69416 10.05696,-18.86129 12.39983,-22.53666 16.4217,-25.76156 l 4.69114,-3.76157 0.25428,4.26157 c 0.13985,2.34386 -0.54934,14.75433 -1.53154,27.57884 l -1.78582,23.31727 2.39723,26.48369 c 1.31848,14.56604 2.23267,26.64673 2.03154,26.84599 -0.20114,0.19927 -7.55373,-0.94867 -16.33911,-2.55096 -24.42359,-4.45443 -20.04458,-7.13461 -35.93711,21.99536 -13.16391,24.12858 -13.58948,25.09603 -13.58948,30.89301 0,5.90685 1.19817,7.95672 3.71505,6.35584 0.56853,-0.36161 4.30386,-6.50748 8.30075,-13.65748 3.99689,-7.15 7.91026,-13.52289 8.69639,-14.16198 0.78614,-0.63909 5.67129,-1.48001 10.85593,-1.86872 l 9.42661,-0.70674 11.61557,7.61872 c 6.38856,4.1903 12.57725,7.61637 13.75263,7.6135 1.17539,-0.003 8.34795,-4.75899 15.93904,-10.56916 l 13.80196,-10.56396 -0.30196,-4.68083 -0.30197,-4.68083 -6.85546,-0.5 -6.85545,-0.5 5.22383,-6.5 c 10.30475,-12.82217 30.66683,-45.41473 44.31817,-70.9379 l 5.04798,-9.4379 -1.81314,-14.55243 c -0.99723,-8.00384 -2.03066,-15.11929 -2.29652,-15.8121 -1.25183,-3.26222 -10.34656,-0.66815 -22.3765,6.3824 -6.90792,4.04862 -7.67841,6.58289 -2.6429,8.69297 3.96289,1.66061 9.75,6.41327 9.75,8.00718 0,0.64043 -3.03751,2.21639 -6.75,3.50213 -3.7125,1.28573 -9.09661,3.67066 -11.96466,5.29985 -6.29988,3.57859 -6.80525,5.29675 -6.02939,20.49857 0.29115,5.70454 0.12766,10.62015 -0.3633,10.92357 -0.49097,0.30343 -0.89266,-0.10001 -0.89266,-0.89654 0,-0.79653 -0.84842,-2.49599 -1.88538,-3.77658 -1.58998,-1.96354 -2.13069,-2.12477 -3.45099,-1.02902 -0.86109,0.71464 -1.84625,3.40004 -2.18927,5.96757 -1.07254,8.0282 -1.60712,7.93286 -4.6638,-0.83177 l -2.9644,-8.5 0.64528,-18.5 c 0.40391,-11.58009 1.08726,-19.13691 1.82692,-20.20276 0.6499,-0.93651 8.38164,-7.15359 17.18164,-13.81573 8.8,-6.66213 16.28298,-12.87089 16.62885,-13.79724 0.34586,-0.92635 0.39609,-5.05927 0.11161,-9.18427 -0.48003,-6.9606 -1.40713,-9.47097 -12.8907,-34.90481 -6.8054,-15.07265 -12.15391,-27.62438 -11.88556,-27.89273 0.44745,-0.44744 4.29234,0.8112 18.07747,5.91772 4.49086,1.66358 5.8546,2.96505 12.48274,11.91277 9.04068,12.20454 10.38129,12.51967 13.69113,3.21831 3.64317,-10.23811 6.60389,-27.67778 6.66366,-39.25126 0.0764,-14.80486 -3.21587,-26.32931 -14.03113,-49.11462 l -4.56367,-9.61461 4.16722,-31.52373 4.16721,-31.52374 -10.63908,-23.86165 c -5.85149,-13.12391 -11.39073,-24.57773 -12.30941,-25.45293 -0.91869,-0.87521 -22.37034,-9.42521 -47.67034,-19 l -46,-17.40872 -42.5,0 -42.5,0 -46,17.40872 c -25.3,9.57479 -46.75164,18.12479 -47.67034,19 -0.91868,0.8752 -6.45792,12.32902 -12.30941,25.45293 l -10.63908,23.86165 4.16721,31.52374 4.16722,31.52373 -4.56367,9.61461 c -10.81526,22.78531 -14.10757,34.30976 -14.03113,49.11462 0.0598,11.57348 3.02049,29.01315 6.66366,39.25126 3.30984,9.30136 4.65045,8.98623 13.69113,-3.21831 6.62814,-8.94772 7.99188,-10.24919 12.48274,-11.91277 13.78513,-5.10652 17.63002,-6.36516 18.07747,-5.91772 0.26835,0.26835 -5.08016,12.82008 -11.88556,27.89273 -11.48356,25.43384 -12.41067,27.94421 -12.8907,34.90481 -0.28448,4.125 -0.23425,8.25792 0.11161,9.18427 0.34587,0.92635 7.82885,7.13511 16.62885,13.79724 8.80001,6.66214 16.53175,12.87922 17.18165,13.81573 0.73965,1.06585 1.42301,8.62267 1.82692,20.20276 l 0.64528,18.5 -2.9644,8.5 c -3.05668,8.76463 -3.59126,8.85997 -4.6638,0.83177 -0.34301,-2.56753 -1.32819,-5.25293 -2.18927,-5.96757 -1.3203,-1.09575 -1.86101,-0.93452 -3.45099,1.02902 -1.03696,1.28059 -1.88538,2.98005 -1.88538,3.77658 0,0.79653 -0.40169,1.19997 -0.89265,0.89654 -0.49096,-0.30342 -0.65445,-5.21903 -0.3633,-10.92357 0.77586,-15.20182 0.27049,-16.91998 -6.02939,-20.49857 -2.86806,-1.62919 -8.25217,-4.01412 -11.96467,-5.29985 -3.7125,-1.28574 -6.75,-2.8617 -6.75,-3.50213 0,-1.59391 5.78712,-6.34657 9.75,-8.00718 5.03551,-2.11008 4.26502,-4.64435 -2.6429,-8.69297 -12.01168,-7.03985 -21.13835,-9.64851 -22.36333,-6.39207 -0.25863,0.6875 -1.28682,7.81106 -2.28487,15.83014 l -1.81464,14.58015 5.34129,9.91985 c 14.31346,26.58297 33.67918,57.5758 44.00153,70.41986 l 5.22383,6.5 -6.85545,0.5 -6.85546,0.5 -0.30197,4.68083 -0.30196,4.68083 13.80196,10.56396 c 7.59109,5.81017 14.76365,10.5663 15.93904,10.56916 1.17538,0.003 7.36407,-3.4232 13.75263,-7.6135 l 11.61557,-7.61872 9.42661,0.70674 c 5.18465,0.38871 10.0698,1.22963 10.85594,1.86872 0.78612,0.63909 4.6995,7.01198 8.69638,14.16198 3.99689,7.15 7.73222,13.29587 8.30075,13.65748 2.51688,1.60088 3.71505,-0.44899 3.71505,-6.35584 z m -12.57067,-117.40419 c -11.78612,-11.33141 -21.44427,-20.89391 -21.46252,-21.25 -0.0842,-1.64248 64.58831,-296.14745 65.03319,-296.14745 0.44488,0 65.11739,294.50497 65.03319,296.14745 -0.0182,0.35609 -9.67639,9.91859 -21.46252,21.25 l -21.42934,20.60255 -22.14133,0 -22.14133,0 -21.42934,-20.60255 z m -96.32951,17.03309 c -1.75314,-1.47517 -4.0762,-4.42408 -5.16236,-6.55313 -2.04549,-4.00949 -3.75735,-12.87741 -2.48586,-12.87741 1.93127,0 13.5201,7.33548 14.00565,8.86527 0.68883,2.17031 -0.88753,10.96502 -2.20075,12.27824 -0.62553,0.62553 -2.0993,0.0182 -4.15667,-1.71297 z m 275.07927,0.83217 c -1.29121,-2.51527 -2.2849,-9.8234 -1.58403,-11.64984 0.53747,-1.40062 12.22173,-8.61287 13.95335,-8.61287 1.16424,0 -0.36685,8.74157 -2.14861,12.26723 -1.88143,3.72287 -5.13792,7.50564 -7.60781,8.83731 -1.254,0.6761 -1.94855,0.45233 -2.6129,-0.84183 z m -211.50132,-72.26271 c -0.30529,-0.825 -1.71202,-6.9 -3.12606,-13.5 -1.41406,-6.6 -2.80023,-13.0125 -3.0804,-14.25 -0.60071,-2.65327 -3.94995,-2.92176 -14.19391,-1.13785 -3.51254,0.61168 -6.63705,0.86153 -6.94336,0.55521 -0.56832,-0.56832 55.03544,-109.34787 56.82432,-111.16736 0.64661,-0.65768 0.78246,-0.14419 0.39686,1.5 -0.32247,1.375 -6.89117,32.875 -14.59711,70 -7.70594,37.125 -14.17156,67.95 -14.36802,68.5 -0.19648,0.55 -0.60703,0.325 -0.91231,-0.5 z m 137.452,-67.77688 c -7.84154,-37.79772 -14.50421,-69.62312 -14.80595,-70.72312 -0.37178,-1.35537 -0.2183,-1.67768 0.47619,-1 1.6404,1.60069 57.4743,110.55902 56.93203,111.10129 -0.26997,0.26998 -4.39599,-0.0738 -9.16891,-0.76385 -5.98875,-0.86588 -9.18078,-0.93761 -10.30028,-0.23144 -1.07722,0.67949 -2.65373,5.76376 -4.69254,15.13348 -1.68867,7.76061 -3.32071,14.35693 -3.62676,14.65848 -0.30605,0.30155 -6.97224,-30.37713 -14.81378,-68.17484 z m -209.12977,-33.2098 c 0,-0.54267 5.625,-22.32909 12.5,-48.41427 6.875,-26.08517 12.5,-47.65269 12.5,-47.92782 0,-0.39224 32.60744,-29.21456 41.38981,-36.5852 2.089,-1.75322 2.09184,-5.75109 -0.0323,45.37876 l -0.64245,15.46479 -11.10754,3.66528 c -6.10915,2.0159 -11.8612,4.32086 -12.78234,5.12213 -0.92115,0.80128 -10.52422,15.59275 -21.34015,32.86994 -10.81592,17.27719 -19.84976,31.41307 -20.07518,31.41307 -0.22541,0 -0.40984,-0.444 -0.40984,-0.98668 z m 275.61706,-30.28876 c -10.88213,-17.36196 -20.53525,-32.21908 -21.45138,-33.01581 -0.91612,-0.79674 -6.6663,-3.09874 -12.77818,-5.11555 l -11.1125,-3.66692 -0.65078,-16.21314 c -0.35792,-8.91723 -0.9361,-22.9226 -1.28484,-31.12305 -0.62318,-14.65358 -0.60055,-14.88567 1.31578,-13.5 3.2941,2.38191 41.34484,36.04849 41.34484,36.58114 0,0.27513 5.64068,21.90213 12.53484,48.06 6.89415,26.15787 12.38477,48.00993 12.20137,48.56014 -0.1834,0.55021 -9.23702,-13.20486 -20.11915,-30.56681 z m -297.0941,-87.92555 c 2.31314,-2.51995 12.74716,-34.60798 12.03543,-37.01293 -0.37209,-1.25734 -19.01905,-19.38608 -41.43768,-40.28608 l -40.76115,-38 -9.42978,-1.65432 c -16.51553,-2.8974 -16.89581,-2.82566 -23.3454,4.40432 -3.06646,3.4375 -5.57741,6.8062 -5.57988,7.486 -0.003,0.67981 2.6955,4.92201 5.9955,9.42712 3.3,4.50511 6,8.71993 6,9.36627 0,0.64635 -2.025,6.00854 -4.5,11.91598 -2.475,5.90745 -4.5,11.60805 -4.5,12.66801 0,1.05996 8.12497,15.84004 18.05548,32.84463 14.11329,24.16699 18.53463,30.98561 20.25,31.22971 1.20699,0.17175 16.5564,-0.003 34.1098,-0.38871 24.16534,-0.53076 32.20481,-1.01642 33.10768,-2 z m 426.45029,-28.89018 c 9.91472,-16.97754 18.02676,-31.73549 18.02676,-32.79545 0,-1.05996 -2.025,-6.76056 -4.5,-12.66801 -2.47501,-5.90744 -4.5,-11.26963 -4.5,-11.91598 0,-0.64634 2.7,-4.86116 6,-9.36627 3.29999,-4.50511 5.99798,-8.74731 5.9955,-9.42712 -0.002,-0.6798 -2.51342,-4.0485 -5.57988,-7.486 -6.44958,-7.22998 -6.82988,-7.30172 -23.34541,-4.40432 l -9.42977,1.65432 -40.76116,38 c -22.41863,20.9 -41.06558,39.02874 -41.43768,40.28608 -0.71341,2.41068 9.72531,34.49701 12.04444,37.02193 0.9144,0.99554 8.8234,1.47331 33.10767,2 17.54845,0.38059 32.90674,0.52933 34.12953,0.33053 1.73588,-0.28223 6.17502,-7.1283 20.25,-31.22971 z"
         id="path3032"
         inkscape:connector-curvature="0" />
    </g>
  </g>
</svg>
